<svg width="1668" height="121" viewBox="0 0 1668 121" fill="none" xmlns="http://www.w3.org/2000/svg">
<path d="M160.968 57.3837C153.855 50.4352 145.307 46.9626 135.319 46.9626H36.317C34.4782 46.9626 32.9008 46.3242 31.5814 45.0441C30.262 43.7672 29.6039 42.2099 29.6039 40.372V32.3466C29.6039 30.5926 30.262 29.0739 31.5814 27.7938C32.9008 26.517 34.4782 25.8754 36.317 25.8754H163.965C164.284 25.8754 164.543 25.7754 164.743 25.5755C164.943 25.3788 165.043 25.1563 165.043 24.9177V0.95763C165.043 0.63842 164.943 0.399819 164.743 0.238601C164.543 0.0806086 164.281 0 163.965 0H36.317C26.249 0 17.6778 3.47584 10.6067 10.4243C3.53557 17.3728 0 25.7561 0 35.5806V37.138C0 47.0432 3.53557 55.4684 10.6067 62.4169C17.6778 69.3653 26.249 72.8379 36.317 72.8379H135.319C137.077 72.8379 138.616 73.457 139.932 74.6952C141.252 75.9333 141.91 77.4713 141.91 79.3092V87.3346C141.91 89.1725 141.252 90.7105 139.932 91.9486C138.613 93.1868 137.074 93.8058 135.319 93.8058H7.55179C7.31307 93.8058 7.09049 93.9058 6.89371 94.1057C6.6937 94.3056 6.5937 94.5668 6.5937 94.886V118.846C6.5937 119.085 6.6937 119.307 6.89371 119.504C7.09371 119.704 7.31307 119.804 7.55179 119.804H135.319C145.307 119.804 153.855 116.312 160.968 109.321C168.078 102.334 171.636 93.9284 171.636 84.1038V82.5432C171.633 72.7186 168.078 64.3321 160.968 57.3837Z" fill="#00D1FF"/>
<path d="M375.902 0H348.214C347.976 0 347.753 0.0806086 347.556 0.238602C347.356 0.399819 347.256 0.63842 347.256 0.95763V31.3858C347.256 34.0201 345.895 36.0192 343.182 37.3766L287.929 60.2566L232.676 37.3766C229.96 36.0192 228.602 34.0233 228.602 31.3858V0.95763C228.602 0.63842 228.521 0.399819 228.363 0.238602C228.199 0.0806086 227.96 0 227.641 0H199.953C199.714 0 199.492 0.0806086 199.295 0.238602C199.095 0.399819 198.995 0.63842 198.995 0.95763V35.8192C198.995 41.0137 200.434 45.7631 203.311 50.0741C206.189 54.3882 210.102 57.5803 215.057 59.6568L273.068 83.9748V118.72C273.068 119.04 273.168 119.301 273.368 119.501C273.568 119.701 273.826 119.801 274.145 119.801H301.833C302.071 119.801 302.291 119.701 302.491 119.501C302.691 119.301 302.791 119.043 302.791 118.72V83.9781L360.802 59.7793C365.754 57.6223 369.673 54.4076 372.547 50.1353C375.425 45.8631 376.86 41.133 376.86 35.9385V0.95763C376.86 0.63842 376.76 0.399819 376.56 0.238602C376.36 0.0806086 376.141 0 375.902 0Z" fill="#00D1FF"/>
<path d="M581.559 0H553.871C553.552 0 553.31 0.0999547 553.152 0.299864C552.99 0.499774 552.913 0.719029 552.913 0.957631V93.922H541.287C539.129 93.922 537.29 92.9643 535.774 91.0458L482.079 12.5782C476.324 4.51408 468.372 0.31921 458.227 0H411.964C411.645 0 411.384 0.0999547 411.184 0.299864C410.984 0.499774 410.884 0.719029 410.884 0.957631V118.84C410.884 119.078 410.984 119.301 411.184 119.497C411.384 119.697 411.642 119.797 411.964 119.797H439.652C439.891 119.797 440.11 119.697 440.31 119.497C440.51 119.301 440.61 119.078 440.61 118.84V25.8754H452.236C454.394 25.8754 456.23 26.8749 457.749 28.8708L511.444 107.338C517.199 115.406 525.148 119.559 535.296 119.797H581.562C581.881 119.797 582.12 119.697 582.281 119.497C582.439 119.301 582.52 119.078 582.52 118.84V0.957631C582.52 0.719029 582.439 0.499774 582.281 0.299864C582.117 0.0999547 581.878 0 581.559 0Z" fill="#00D1FF"/>
<path d="M781.676 0H612.079C611.759 0 611.517 0.0999547 611.359 0.299864C611.198 0.499774 611.12 0.719029 611.12 0.957631V24.9177C611.12 25.1563 611.198 25.3788 611.359 25.5755C611.517 25.7754 611.759 25.8754 612.079 25.8754H682.074V118.84C682.074 119.078 682.151 119.301 682.313 119.497C682.471 119.697 682.713 119.797 683.032 119.797H710.72C711.039 119.797 711.278 119.697 711.439 119.497C711.597 119.301 711.678 119.078 711.678 118.84V25.8754H781.673C781.993 25.8754 782.251 25.7754 782.451 25.5755C782.651 25.3756 782.751 25.1563 782.751 24.9177V0.957631C782.751 0.719029 782.651 0.499774 782.451 0.299864C782.257 0.0999547 781.996 0 781.676 0Z" fill="#00D1FF"/>
<path d="M987.329 0H959.642C959.403 0 959.18 0.0999547 958.984 0.299864C958.784 0.499774 958.684 0.719029 958.684 0.957631V46.9594H846.497V0.957631C846.497 0.719029 846.397 0.499774 846.197 0.299864C845.997 0.103179 845.736 0 845.42 0H817.732C817.493 0 817.271 0.0999547 817.074 0.299864C816.874 0.499774 816.774 0.719029 816.774 0.957631V118.84C816.774 119.078 816.874 119.301 817.074 119.497C817.274 119.697 817.493 119.797 817.732 119.797H845.42C845.739 119.797 845.997 119.697 846.197 119.497C846.397 119.298 846.497 119.078 846.497 118.84V72.838H958.684V118.84C958.684 119.078 958.784 119.301 958.984 119.497C959.184 119.697 959.403 119.797 959.642 119.797H987.329C987.649 119.797 987.907 119.697 988.107 119.497C988.307 119.298 988.407 119.078 988.407 118.84V0.957631C988.407 0.719029 988.304 0.499774 988.107 0.299864C987.907 0.0999547 987.645 0 987.329 0Z" fill="#00D1FF"/>
<path d="M1192.25 0H1057.89C1047.9 0 1039.35 3.47262 1032.24 10.4211C1025.13 17.3695 1021.58 25.7561 1021.58 35.5806V84.0974C1021.58 94.0025 1025.13 102.428 1032.24 109.376C1039.35 116.325 1047.9 119.801 1057.89 119.801H1192.25C1192.49 119.801 1192.71 119.701 1192.91 119.501C1193.11 119.301 1193.21 119.081 1193.21 118.843V94.8828C1193.21 94.5636 1193.11 94.325 1192.91 94.1638C1192.71 94.0058 1192.49 93.9252 1192.25 93.9252H1057.89C1056.05 93.9252 1054.5 93.2867 1053.22 92.0099C1051.94 90.733 1051.3 89.2144 1051.3 87.4571V72.8379H1192.16C1192.48 72.8379 1192.72 72.738 1192.88 72.5381C1193.04 72.3382 1193.12 72.1189 1193.12 71.8803V47.9202C1193.12 47.601 1193.04 47.3624 1192.88 47.2012C1192.72 47.0432 1192.48 46.9626 1192.16 46.9626H1051.3V32.3466C1051.3 30.5894 1051.94 29.0739 1053.22 27.7938C1054.5 26.517 1056.05 25.8754 1057.89 25.8754H1192.25C1192.49 25.8754 1192.71 25.7754 1192.91 25.5755C1193.11 25.3788 1193.21 25.1563 1193.21 24.9177V0.95763C1193.21 0.719029 1193.11 0.499773 1192.91 0.299864C1192.71 0.103179 1192.49 0 1192.25 0Z" fill="#00D1FF"/>
<path d="M1396.93 0H1227.33C1227.02 0 1226.77 0.0999547 1226.62 0.299864C1226.45 0.499774 1226.38 0.719029 1226.38 0.957631V24.9177C1226.38 25.1563 1226.45 25.3788 1226.62 25.5755C1226.77 25.7754 1227.02 25.8754 1227.33 25.8754H1297.33V118.84C1297.33 119.078 1297.41 119.301 1297.57 119.497C1297.73 119.697 1297.97 119.797 1298.29 119.797H1325.98C1326.3 119.797 1326.53 119.697 1326.7 119.497C1326.86 119.301 1326.93 119.078 1326.93 118.84V25.8754H1396.93C1397.25 25.8754 1397.51 25.7754 1397.71 25.5755C1397.91 25.3756 1398.01 25.1563 1398.01 24.9177V0.957631C1398.01 0.719029 1397.91 0.499774 1397.71 0.299864C1397.51 0.0999547 1397.25 0 1396.93 0Z" fill="#00D1FF"/>
<path d="M1461.39 0.238602C1461.23 0.0806086 1460.99 0 1460.68 0H1432.99C1432.67 0 1432.43 0.0806086 1432.27 0.238602C1432.11 0.399819 1432.03 0.63842 1432.03 0.957631V118.84C1432.03 119.078 1432.11 119.301 1432.27 119.497C1432.43 119.697 1432.67 119.797 1432.99 119.797H1460.68C1460.99 119.797 1461.23 119.697 1461.39 119.497C1461.55 119.298 1461.63 119.078 1461.63 118.84V0.957631C1461.63 0.641645 1461.55 0.399819 1461.39 0.238602Z" fill="#00D1FF"/>
<path d="M1537.84 29.113C1536.64 27.7555 1535.16 27.0752 1533.4 27.0752H1497.44C1497.13 27.0752 1496.86 26.9753 1496.67 26.7753C1496.47 26.5787 1496.37 26.3562 1496.37 26.1176V2.15746C1496.37 1.91886 1496.47 1.6996 1496.67 1.49969C1496.86 1.30301 1497.13 1.19983 1497.44 1.19983H1535.44C1545.03 1.19983 1553.3 5.07549 1560.25 12.8204L1569.48 23.9605L1551.5 45.6442L1537.84 29.113ZM1604.23 12.7011C1611.19 5.03358 1619.5 1.19983 1629.16 1.19983H1667.04C1667.36 1.19983 1667.6 1.28044 1667.76 1.43843C1667.92 1.59965 1668 1.83825 1668 2.15746V26.1176C1668 26.3562 1667.92 26.5787 1667.76 26.7753C1667.6 26.9753 1667.36 27.0752 1667.04 27.0752H1631.08C1629.32 27.0752 1627.85 27.7555 1626.65 29.113L1600.16 60.9792L1626.77 93.084C1627.97 94.3641 1629.4 95.0025 1631.08 95.0025H1667.04C1667.36 95.0025 1667.6 95.1025 1667.76 95.3024C1667.92 95.5023 1668 95.7635 1668 96.0794V120.04C1668 120.278 1667.92 120.501 1667.76 120.697C1667.6 120.897 1667.36 120.997 1667.04 120.997H1629.17C1619.5 120.997 1611.23 117.125 1604.36 109.377L1582.3 82.7822L1560.25 109.377C1553.3 117.125 1544.99 120.997 1535.32 120.997H1497.44C1497.13 120.997 1496.88 120.897 1496.73 120.697C1496.56 120.497 1496.49 120.239 1496.49 119.917V95.9569C1496.49 95.7183 1496.56 95.4991 1496.73 95.2991C1496.88 95.0992 1497.13 94.9993 1497.44 94.9993H1533.4C1535.08 94.9993 1536.56 94.3222 1537.84 92.9615L1563.84 61.5757L1604.23 12.7011Z" fill="#00D1FF"/>
</svg>
