<svg width="114" height="80" viewBox="0 0 114 80" fill="none" xmlns="http://www.w3.org/2000/svg">
<g clip-path="url(#clip0)">
<path d="M27.3828 18.6398C26.5904 17.7333 25.6148 17.279 24.4538 17.279H0.711462C0.50058 17.279 0.328039 17.2122 0.198102 17.0787C0.0660339 16.9474 0 16.7988 0 16.6395V0.639483C0 0.480151 0.0660339 0.333737 0.198102 0.200242C0.328039 0.0667474 0.50058 0 0.711462 0H25.8001C32.1308 0 37.5925 2.58808 42.1829 7.75992L48.2772 15.199L36.406 29.6789L27.3828 18.6398ZM71.2293 7.68026C75.8197 2.56009 81.3069 0 87.6909 0H112.701C112.912 0 113.069 0.0538286 113.176 0.159333C113.28 0.26699 113.333 0.426322 113.333 0.639483V16.6395C113.333 16.7988 113.28 16.9474 113.176 17.0787C113.069 17.2122 112.912 17.279 112.701 17.279H88.9583C87.7974 17.279 86.8218 17.7333 86.0294 18.6398L68.5389 39.9193L86.1082 61.3581C86.9006 62.2129 87.8485 62.6392 88.9583 62.6392H112.701C112.912 62.6392 113.069 62.706 113.176 62.8395C113.28 62.973 113.333 63.1474 113.333 63.3584V79.3584C113.333 79.5177 113.28 79.6663 113.176 79.7976C113.069 79.9311 112.912 79.9978 112.701 79.9978H87.6909C81.3069 79.9978 75.8453 77.4119 71.3081 72.2379L56.7465 54.4788L42.1829 72.2379C37.5925 77.4119 32.1053 79.9978 25.7213 79.9978H0.711462C0.50058 79.9978 0.34082 79.9311 0.236444 79.7976C0.129938 79.6641 0.0788147 79.4919 0.0788147 79.2765V63.2765C0.0788147 63.1172 0.129938 62.9708 0.236444 62.8373C0.34082 62.7038 0.50058 62.6371 0.711462 62.6371H24.4538C25.5615 62.6371 26.5371 62.1849 27.3828 61.2763L44.5558 40.3176L71.2293 7.68026Z" fill="#00D1FF"/>
</g>
<defs>
<clipPath id="clip0">
<rect width="113.333" height="80" fill="white"/>
</clipPath>
</defs>
</svg>
